# Blender v2.91.0 OBJ File: ''
# www.blender.org
mtllib cube.mtl
o Cube
v 1.000000 1.000000 -1.000000
v 1.000000 -1.000000 -1.000000
v 1.000000 1.000000 1.000000
v 1.000000 -1.000000 1.000000
v -1.000000 1.000000 -1.000000
v -1.000000 -1.000000 -1.000000
v -1.000000 1.000000 1.000000
v -1.000000 -1.000000 1.000000
vt 0.875000 0.500000
vt 0.625000 0.750000
vt 0.625000 0.500000
vt 0.375000 1.000000
vt 0.375000 0.750000
vt 0.625000 0.250000
vt 0.375000 0.500000
vt 0.375000 0.250000
vt 0.875000 0.750000
vt 0.625000 1.000000
vt 0.625000 0.000000
vt 0.375000 0.000000
vt 0.125000 0.750000
vt 0.125000 0.500000
vn 0.0000 1.0000 0.0000
vn 0.0000 0.0000 1.0000
vn 0.0000 0.0000 -1.0000
vn -1.0000 0.0000 0.0000
vn 0.0000 -1.0000 0.0000
vn 1.0000 0.0000 0.0000
g Cube_Cube_RED
usemtl RED
s off
f 5/1/1 3/2/1 1/3/1
f 3/2/2 8/4/2 4/5/2
f 5/6/3 2/7/3 6/8/3
f 5/1/1 7/9/1 3/2/1
f 3/2/2 7/10/2 8/4/2
f 5/6/3 1/3/3 2/7/3
g Cube_Cube_GREEN
usemtl GREEN
f 7/11/4 6/8/4 8/12/4
f 2/7/5 8/13/5 6/14/5
f 1/3/6 4/5/6 2/7/6
f 7/11/4 5/6/4 6/8/4
f 2/7/5 4/5/5 8/13/5
f 1/3/6 3/2/6 4/5/6
